<svg id="a21a5c61-0b05-430f-8de6-d889ace7f9f6" data-name="Layer 1" xmlns="http://www.w3.org/2000/svg" viewBox="0 0 609.97874 711"><defs><style>.aaa9c63c-ead4-4078-936a-d873eb055454{fill:#8dd4ac;}.af82080c-ecd1-4037-81b4-2b0700a6b081{fill:#fff;}</style></defs><path class="aaa9c63c-ead4-4078-936a-d873eb055454" d="M500,114C399.74954,180.72874,289,215,207,230c-56,306,91.32849,538.0553,293,595Z" transform="translate(-195.01063 -114)"/><path class="aaa9c63c-ead4-4078-936a-d873eb055454" d="M500,114c100.25046,66.72874,211,101,293,116,56,306-91.32849,538.0553-293,595Z" transform="translate(-195.01063 -114)"/><path class="af82080c-ecd1-4037-81b4-2b0700a6b081" d="M382.77165,330.45774h234.4567A62.77164,62.77164,0,0,1,680,393.22939V527.6861a62.77164,62.77164,0,0,1-62.77165,62.77164H382.77165A62.77164,62.77164,0,0,1,320,527.6861V393.22939A62.77164,62.77164,0,0,1,382.77165,330.45774Z" transform="translate(-195.01063 -114)"/><path class="af82080c-ecd1-4037-81b4-2b0700a6b081" d="M392,658.00562V590.45774H492.95867l-81.5989,75.97462A11.51384,11.51384,0,0,1,392,658.00562Z" transform="translate(-195.01063 -114)"/></svg>