<svg id="aa83f1a3-ae1c-4ff6-a0e0-2ae8672d5de6" data-name="Layer 1" xmlns="http://www.w3.org/2000/svg" viewBox="0 0 609.97874 711"><defs><style>.bf726adc-5e52-4669-9512-14b196abad5e{fill:#8dd4ac;}.a80cda63-c029-4a1c-9462-1bf620bc0332{fill:#fff;}</style></defs><path class="bf726adc-5e52-4669-9512-14b196abad5e" d="M500,114C399.74954,180.72874,289,215,207,230c-56,306,91.32849,538.0553,293,595Z" transform="translate(-195.01063 -114)"/><path class="bf726adc-5e52-4669-9512-14b196abad5e" d="M500,114c100.25046,66.72874,211,101,293,116,56,306-91.32849,538.0553-293,595Z" transform="translate(-195.01063 -114)"/><path class="a80cda63-c029-4a1c-9462-1bf620bc0332" d="M382.77165,330.45774h234.4567A62.77164,62.77164,0,0,1,680,393.22939V527.6861a62.77164,62.77164,0,0,1-62.77165,62.77164H382.77165A62.77164,62.77164,0,0,1,320,527.6861V393.22939A62.77164,62.77164,0,0,1,382.77165,330.45774Z" transform="translate(-195.01063 -114)"/><path class="a80cda63-c029-4a1c-9462-1bf620bc0332" d="M392,659V590H492l-80,76C404.63668,672.8558,392,669.06084,392,659Z" transform="translate(-195.01063 -114)"/></svg>